<?xml version="1.0" encoding="utf-8"?>
<!-- Generator: Adobe Illustrator 23.1.1, SVG Export Plug-In . SVG Version: 6.00 Build 0)  -->
<svg version="1.1" id="WORDMARK" xmlns="http://www.w3.org/2000/svg" xmlns:xlink="http://www.w3.org/1999/xlink" x="0px" y="0px"
	 viewBox="0 0 1055.8 555.63" style="enable-background:new 0 0 1055.8 555.63;" xml:space="preserve">
<g>
	<path d="M500.06,319.48c0-0.27-0.02-0.53-0.04-0.79c0.41-7.3,6.45-13.1,13.85-13.1l0,0c0.03,0,0.06,0,0.08,0h27.78
		c7.67,0,13.89-6.22,13.89-13.89v-27.78c0-7.67-6.22-13.89-13.89-13.89h-27.78c-7.67,0-13.89,6.22-13.89,13.89v27.78
		c0,0.03,0,0.06,0,0.08l-0.08-0.08c0,7.67-6.22,13.89-13.89,13.89h-83.26c-7.67,0-13.89-6.22-13.89-13.89v-27.78
		c0-7.67-6.22-13.89-13.89-13.89h-27.7l0,0c-7.67,0-13.89-6.22-13.89-13.89v-83.34c0-7.67,6.22-13.89,13.89-13.89h27.7
		c7.67,0,13.89-6.22,13.89-13.89V97.23v0l0,0c0-7.67,6.22-13.89,13.89-13.89h83.34c7.67,0,13.89,6.22,13.89,13.89l0,0v0v27.78
		c0,7.67,6.22,13.89,13.89,13.89h27.78c7.67,0,13.89-6.22,13.89-13.89V97.23c0-7.67-6.22-13.89-13.89-13.89h-27.78h0l0,0
		c-7.67,0-13.89-6.22-13.89-13.89V41.67c0-7.67-6.22-13.89-13.89-13.89h-83.34c-7.67,0-13.89,6.22-13.89,13.89v27.78
		c0,7.67-6.22,13.89-13.89,13.89l0,0h0h-27.78h0l0,0c-7.67,0-13.89-6.22-13.89-13.89V41.67c0-7.67-6.22-13.89-13.89-13.89H291.7
		c-7.67,0-13.89,6.22-13.89,13.89v27.78c0,0.27,0.03,0.53,0.04,0.79c-0.41,7.3-6.45,13.1-13.85,13.1l0,0c-0.03,0-0.06,0-0.08,0
		h-27.78h0l0,0c-7.67,0-13.89-6.22-13.89-13.89V41.67c0-7.67-6.22-13.89-13.89-13.89h-27.78c-7.67,0-13.89,6.22-13.89,13.89v27.78
		c0,7.67-6.22,13.89-13.89,13.89l0,0c0,0,0,0,0,0h-27.78c-7.67,0-13.89,6.22-13.89,13.89v27.78c0,7.67-6.22,13.89-13.89,13.89H69.45
		c-7.67,0-13.89,6.22-13.89,13.89v83.34c0,7.67,6.22,13.89,13.89,13.89h27.78c7.67,0,13.89,6.22,13.89,13.89l0,0v0v27.78
		c0,7.67,6.22,13.89,13.89,13.89h27.78h0l0,0c7.67,0,13.89,6.22,13.89,13.89v27.78c0,7.67,6.22,13.89,13.89,13.89h27.78
		c7.67,0,13.89-6.22,13.89-13.89v-27.78c0-0.01,0-0.03,0-0.04l0.04,0.04c0-7.67,6.22-13.89,13.89-13.89h27.74c0.03,0,0.06,0,0.08,0
		l0,0c7.41,0,13.44,5.8,13.85,13.1c-0.01,0.26-0.04,0.52-0.04,0.79v27.78c0,7.67,6.22,13.89,13.89,13.89h27.78
		c7.67,0,13.89-6.22,13.89-13.89v-27.78c0-7.67,6.22-13.89,13.89-13.89h27.78c7.67,0,13.89,6.22,13.89,13.89v27.78
		c0,7.67,6.22,13.89,13.89,13.89h83.34c7.67,0,13.89-6.22,13.89-13.89V319.48z M277.88,97.23c0-7.67,6.22-13.89,13.89-13.89h27.7
		c0,0,0,0,0,0c7.67,0,13.89,6.22,13.89,13.89l0,0v0v27.78c0,0.27,0.03,0.53,0.04,0.79c-0.41,7.3-6.45,13.1-13.85,13.1h-27.78
		c-0.03,0-0.06,0-0.08,0l0,0c-7.67,0-13.89-6.22-13.89-13.89V97.23c0-0.03,0-0.06,0-0.08L277.88,97.23z M166.68,97.23
		c0-7.67,6.22-13.89,13.89-13.89c0,0,0,0,0,0h27.78c0,0,0,0,0,0c7.67,0,13.89,6.22,13.89,13.89l0,0v0v27.78
		c0,7.67-6.22,13.89-13.89,13.89h-27.78h0l0,0c-7.67,0-13.89-6.22-13.89-13.89L166.68,97.23C166.68,97.23,166.68,97.23,166.68,97.23
		L166.68,97.23z M125.01,250.03L125.01,250.03L125.01,250.03c-7.67,0-13.89-6.22-13.89-13.89v-83.34c0-7.67,6.22-13.89,13.89-13.89
		h27.78c7.67,0,13.89,6.22,13.89,13.89l0,0v0v83.34c0,0,0,0,0,0l0,0c0,7.67-6.22,13.89-13.89,13.89H125.01z M208.35,305.59h-27.78
		c-7.67,0-13.89-6.22-13.89-13.89l0,0v0v-27.78c0-7.67,6.22-13.89,13.89-13.89l0,0c0,0,0,0,0,0h27.78c7.67,0,13.89,6.22,13.89,13.89
		l0,0v0v27.78c0,0.13,0.02,0.26,0.02,0.39c-0.21,7.49-6.33,13.5-13.87,13.5l0,0C208.38,305.59,208.37,305.59,208.35,305.59z
		 M236.13,250.03L236.13,250.03L236.13,250.03c-7.67,0-13.89-6.22-13.89-13.89v-83.34c0-7.67,6.22-13.89,13.89-13.89h27.78
		c7.67,0,13.89,6.22,13.89,13.89l0.08-0.08c0,0.03,0,0.06,0,0.08v83.34c0,0.03,0,0.06,0,0.08l-0.08-0.08
		c0,7.67-6.22,13.89-13.89,13.89H236.13z M319.48,305.59h-27.7c-7.67,0-13.89-6.22-13.89-13.89l-0.08,0.08c0-0.03,0-0.06,0-0.08
		v-27.78c0-7.67,6.22-13.89,13.89-13.89l0,0c0.03,0,0.06,0,0.08,0h27.78c7.41,0,13.44,5.8,13.85,13.1
		c-0.01,0.26-0.04,0.52-0.04,0.79v27.78C333.37,299.37,327.15,305.59,319.48,305.59z"/>
	<path d="M636.38,376.31c-0.67,3.78-2.06,7.29-4.17,10.52c-2.12,3.23-4.9,5.79-8.35,7.68c-3.45,1.89-7.4,2.84-11.85,2.84h-1.17
		c-5.34,0-10.02-1.42-14.02-4.26c-4.01-2.84-7.12-6.95-9.35-12.35c-2.23-5.4-3.34-11.82-3.34-19.28c0-7.68,1.06-14.24,3.17-19.7
		c2.11-5.45,5.17-9.57,9.18-12.35c4.01-2.78,8.79-4.17,14.36-4.17h1.33c4.12,0,7.84,0.81,11.18,2.42c3.34,1.62,6.09,3.98,8.26,7.09
		c2.17,3.12,3.7,6.84,4.59,11.18h28.54c-1.23-8.68-4.12-16.19-8.68-22.53c-4.56-6.34-10.6-11.21-18.11-14.61
		c-7.51-3.39-16.22-5.09-26.12-5.09c-11.35,0-21.28,2.37-29.8,7.09c-8.51,4.73-15.05,11.43-19.61,20.11
		c-4.56,8.68-6.84,18.92-6.84,30.71c0,11.91,2.2,22.12,6.59,30.63c4.39,8.51,10.82,15.05,19.28,19.61
		c8.46,4.56,18.53,6.84,30.21,6.84c10.24,0,19.2-1.78,26.88-5.34c7.68-3.56,13.77-8.54,18.28-14.94c4.51-6.4,7.26-13.77,8.26-22.12
		H636.38z"/>
	<path d="M700.31,305.7l-40.9,111h29.04l8.18-22.87h40.73l8.35,22.87h29.38l-42.4-111H700.31z M702.48,374.97l9.01-30.05
		c1.67-5.67,2.89-10.96,3.67-15.86H718c1,5.45,2.28,10.74,3.84,15.86l10.02,30.05H702.48z"/>
	<rect x="778.26" y="305.7" width="27.88" height="111"/>
	<path d="M919.14,416.7v-0.83c-1.33-2.22-2.5-4.81-3.5-7.76c-1-2.95-1.84-6.2-2.5-9.76c-0.45-3.23-0.67-6.51-0.67-9.85
		c0-7.68-1.78-13.41-5.34-17.19c-3.56-3.78-8.85-5.73-15.86-5.84v-3c4.01-0.22,7.79-1.45,11.35-3.67c3.56-2.23,6.43-5.28,8.6-9.18
		c2.17-3.89,3.25-8.4,3.25-13.52c0-10.02-3.59-17.58-10.77-22.7c-7.18-5.12-16.61-7.68-28.29-7.68h-56.75v111h27.38v-41.56h21.03
		c4.78,0,8.54,0.67,11.27,2c2.73,1.33,4.73,3.25,6.01,5.76c1.28,2.5,1.92,5.7,1.92,9.6c0,3.56,0.17,6.84,0.5,9.85
		c0.33,2.9,0.83,5.51,1.5,7.85c0.67,2.34,1.45,4.51,2.34,6.51H919.14z M882.09,351.85c-2.67,2.5-6.51,3.76-11.52,3.76h-24.54V326.9
		h24.54c5.12,0,8.99,1.2,11.6,3.59c2.61,2.39,3.92,5.93,3.92,10.6S884.76,349.35,882.09,351.85z"/>
	<path d="M986.36,416.72h-27.78c-7.67,0-13.89,6.22-13.89,13.89v27.78c0,7.67-6.22,13.89-13.89,13.89l0,0h0h-27.78
		c-7.67,0-13.89,6.22-13.89,13.89v27.78c0,7.67,6.22,13.89,13.89,13.89h27.78c7.67,0,13.89-6.22,13.89-13.89v-27.78v0l0,0
		c0-7.67,6.22-13.89,13.89-13.89h27.78c7.67,0,13.89-6.22,13.89-13.89v-27.78C1000.25,422.94,994.03,416.72,986.36,416.72z"/>
	<path d="M986.36,250.03h-27.78c-7.67,0-13.89,6.22-13.89,13.89v27.78c0,7.67,6.22,13.89,13.89,13.89h27.78
		c7.67,0,13.89-6.22,13.89-13.89v-27.78C1000.25,256.25,994.03,250.03,986.36,250.03z"/>
	<path d="M541.73,416.71h-27.78c-7.67,0-13.89,6.22-13.89,13.89v27.78c0,7.67,6.22,13.89,13.89,13.89h27.78
		c7.67,0,13.89-6.22,13.89-13.89V430.6C555.62,422.93,549.4,416.71,541.73,416.71z"/>
</g>
</svg>
